<svg width="94" height="99" viewBox="0 0 94 99" fill="none" xmlns="http://www.w3.org/2000/svg">
<path d="M26.2627 85.3194C20.0734 64.5484 28.4524 41.3358 44.5175 33.8002C44.8432 34.2517 45.3453 34.7783 45.4177 35.3302C46.6488 44.7131 53.0628 49.4266 61.2814 52.4078C67.6591 54.813 74.3216 56.089 81.1241 55.132C83.0464 54.8048 84.9687 54.4776 86.8683 53.7238C93.8832 51.0856 95.71 45.7154 92.2131 39.1187C89.8653 34.6791 86.0928 31.8209 81.7098 29.6404C74.1787 25.8057 65.9014 24.1543 57.2082 24.4098C55.4895 24.5111 53.7707 24.6124 51.3193 24.7141C54.6969 13.6477 63.3761 7.44582 71.0012 0.0653283C69.3549 0.718548 67.609 1.12092 66.0622 2.02499C58.3238 7.27291 51.7163 13.5238 48.1258 22.2068C47.0495 24.6662 45.9009 26.5736 43.1148 27.6791C32.4002 32.0756 25.5531 40.3087 21.5964 51.0242C18.6164 59.0294 17.3779 67.3599 17.831 75.8901C17.9442 78.0227 18.0575 80.1553 18.1121 83.6177C12.1233 79.6065 6.93956 76.1469 1.75587 72.6873C1.42572 72.9635 1.14533 73.3651 0.815173 73.6412C1.08665 74.6948 1.20437 76.0998 1.93264 76.827C5.39759 80.3879 8.86255 83.9488 12.531 87.2838C15.9236 90.2927 19.5196 93.0757 22.9121 96.0847C26.2549 98.9682 28.6295 99.0422 29.8413 95.0774C31.9801 88.2769 33.463 81.3011 35.0726 74.2751C35.2805 73.3216 34.2265 72.143 33.652 71.0644C32.4852 71.8177 30.7891 72.3455 30.3278 73.3995C28.7632 77.214 27.7549 80.9529 26.2627 85.3194ZM49.6102 31.4892C62.8669 28.6971 74.7807 30.6477 85.3155 39.0973C87.5275 40.9779 89.7349 43.586 88.2019 46.3718C87.1798 48.229 84.24 49.6858 81.9876 50.2892C73.2584 52.301 65.1349 50.2982 57.3775 46.2629C51.9632 43.3304 48.9324 39.0165 49.6102 31.4892Z" fill="#29D4E8"/>
</svg>
