<svg width="183" height="112" viewBox="0 0 183 112" fill="none" xmlns="http://www.w3.org/2000/svg">
<path d="M74.9391 69.6353C75.1182 71.2993 75.2884 72.8648 75.1899 74.4483C74.9481 78.2414 72.1178 81.954 68.6874 82.7949C66.9588 83.2243 65.1854 83.3227 63.9315 81.6945C62.7492 80.1648 63.1523 78.5455 63.9404 77.0068C65.1138 74.7167 66.9588 72.9543 68.9113 71.353C70.2996 70.2079 70.5773 69.2864 69.3771 67.8103C67.9351 66.039 66.708 64.0888 65.2571 62.0312C63.4568 65.6365 62.1671 69.2417 60.1966 72.507C59.6771 73.3658 59.1756 74.2515 58.5576 75.0477C56.6319 77.5257 54.6794 77.311 53.309 74.4393C51.9566 71.6034 51.5267 68.526 51.1236 65.4486C51.0609 64.9744 51.258 64.4287 50.64 63.9009C49.4308 66.1911 48.2933 68.4723 47.0215 70.6641C46.3319 71.8539 45.7676 73.6879 44.0121 73.2853C42.2387 72.8827 42.382 70.9235 42.1133 69.4922C41.9342 68.5171 42.0775 67.4883 41.6834 66.3342C41.2445 67.1662 40.8236 67.9982 40.3668 68.8123C39.704 69.9753 38.9337 71.0219 37.3663 70.8878C35.7721 70.7536 35.3063 69.4922 34.8406 68.2666C34.6435 67.7388 34.545 67.1752 34.3569 66.4863C33.3807 66.8442 33.0493 67.6851 32.5567 68.3203C30.3534 71.1919 28.0426 73.9741 25.0063 76.0049C21.3789 78.4382 17.8142 77.8746 15.0824 74.4572C11.876 70.4494 11.1147 65.5917 10.3802 60.7251C9.61891 55.7064 10.219 50.804 11.6521 45.991C12.0999 44.506 11.8491 43.9245 10.1653 43.8976C7.63952 43.8529 5.12272 43.5219 2.74028 42.5915C0.420529 41.679 -0.376596 40.2656 0.160798 38.199C0.787757 38.0827 0.886278 38.5927 0.957931 38.9773C1.28037 40.7218 2.56115 41.5269 4.04794 41.9653C6.48413 42.681 8.99196 42.8957 11.5356 42.8867C12.7985 42.8867 13.2553 42.0905 13.7837 41.1959C15.6467 38.0022 18.0112 35.3542 21.7013 34.227C26.4572 32.7688 29.1621 34.7369 29.3054 39.6662C29.4219 43.6203 28.2396 47.0645 25.3198 49.7931C23.4031 51.5912 21.2983 52.0027 19.8473 50.9918C18.3605 49.9541 17.9306 47.8518 18.7725 45.49C19.0502 44.6938 19.3995 43.9245 19.7577 43.0388C18.262 42.8599 17.438 43.3609 17.017 44.667C14.3032 53.0047 13.7658 61.4497 15.6736 70.029C15.7631 70.4494 15.9243 70.8609 16.0766 71.2635C18.1814 76.6669 21.3968 77.6062 25.8213 73.9115C29.61 70.7446 32.7089 66.9426 34.9749 62.5143C35.369 61.7449 35.7989 60.9845 36.3095 60.3046C37.017 59.3563 37.9754 58.6496 39.1397 58.426C40.7519 58.1129 42.2745 59.3295 44.1375 58.3097C45.1048 57.7729 45.9736 59.4369 45.7049 60.904C45.2839 63.2389 44.9436 65.5917 44.5853 67.9445C44.3883 69.2149 44.3077 70.4941 44.5047 71.7019C44.9794 71.9166 45.2212 71.6929 45.3556 71.4603C48.0873 66.8263 51.1594 62.3801 50.7116 56.5115C50.4429 53.0136 50.4608 49.4442 51.043 45.9373C51.3475 44.1213 50.3534 43.8082 48.8755 44.0945C45.3198 44.7833 41.7282 45.1501 38.1097 44.837C35.0108 44.5686 33.8912 42.4126 35.584 40.1314C35.6825 39.9972 35.9422 39.9882 36.2557 39.8719C36.6767 40.9723 35.1541 42.1353 36.4349 43.0925C37.5723 43.9424 38.8979 43.835 40.1787 43.8708C43.4389 43.9603 46.6453 43.513 49.8607 42.9583C50.9893 42.7615 51.464 42.2874 51.5714 41.1602C51.6879 39.9435 51.9655 38.7447 52.2521 37.5549C52.4761 36.6514 52.7089 35.551 53.936 35.6494C55.163 35.7568 55.7631 36.7229 55.996 37.8591C56.0945 38.3422 56.0229 38.861 55.9602 39.362C55.6288 42.019 55.6198 42.0279 58.3157 41.4912C61.4326 40.8739 64.5405 40.2477 67.738 40.3192C69.0546 40.3461 70.3354 40.5787 71.4908 41.2228C73.4344 42.3052 73.7658 44.175 72.3327 46.0715C72.2074 45.9016 71.9834 45.7495 71.9834 45.6063C72.064 42.1263 71.5087 41.5806 67.9888 41.3749C64.1823 41.1512 60.528 42.01 56.8648 42.7705C55.9333 42.9673 55.3511 43.4772 55.2615 44.5239C54.4913 53.6488 53.7927 62.7737 54.8496 71.9166C54.9839 73.0974 54.9749 74.7346 56.3005 75.0477C57.5813 75.3429 58.0739 73.7773 58.6292 72.838C60.6982 69.3669 62.3641 65.6812 64.0211 62.0044C64.4958 60.9487 64.2539 60.0899 63.8509 59.1238C62.8209 56.6726 62.3372 54.1498 63.2239 51.5375C63.4568 50.8576 63.7255 50.1688 64.1196 49.5873C64.9525 48.3617 66.0452 47.1003 67.6485 47.7265C69.189 48.3259 68.9561 49.9094 68.768 51.3139C68.5173 53.1836 68.0873 55.0086 67.3439 56.7352C66.923 57.7103 66.9946 58.5154 67.6574 59.3295C69.0546 61.0561 70.425 62.8095 71.9297 64.7061C72.5746 63.7488 72.2701 62.8811 72.2701 62.0938C72.2701 60.7161 72.5567 59.3742 73.6583 58.6049C75.1093 57.585 75.6019 56.1716 75.9422 54.606C76.9095 50.2404 79.3457 46.3399 79.9727 41.858C80.2235 40.0777 80.5907 38.3153 80.5817 36.4993C80.5817 33.8423 81.5938 31.4448 82.588 29.0383C84.2092 25.1021 84.1017 21.3626 81.352 17.8648C80.2235 16.4334 79.5965 14.7158 79.2741 12.9176C78.7009 9.67021 78.5844 6.35123 77.644 3.14856C77.3842 2.25396 77.0797 1.01047 78.0649 0.348462C78.9606 -0.250921 80.1608 0.0085175 80.9579 0.590008C84.039 2.82651 87.3529 3.24697 91.1594 3.36327C94.3032 3.45273 96.7125 2.72811 98.8442 0.974687C101.388 -1.11868 102.525 0.491599 103.036 2.68337C103.197 3.36327 103.313 4.19525 103.072 4.80358C101.388 8.96347 102.203 13.6243 100.188 17.7574C97.9575 22.3378 98.9427 26.9002 101.227 31.248C102.695 34.0481 104.281 36.8035 104.693 40.1761C105.365 38.9684 105.983 37.7249 106.726 36.5619C108.356 34.0212 110.38 34.0928 111.786 36.7677C113.049 39.1652 113.363 41.8401 113.712 44.4881C114.196 48.147 114.241 51.8238 114.106 55.5006C114.052 57.1377 114.554 57.5314 116.103 57.0572C119.767 55.93 120.394 55.1517 120.412 51.296C120.438 46.2683 121.253 41.3928 123.224 36.7498C124.173 34.5222 125.49 32.5452 127.648 31.3017C128.911 30.5681 130.282 29.8882 131.697 30.8991C133.013 31.8474 133.255 33.2787 132.987 34.7817C131.921 40.7665 129.87 46.3488 125.983 51.0902C124.89 52.4232 124.496 53.7472 124.523 55.4201C124.594 59.8215 124.72 64.214 125.445 68.5528C125.687 69.9932 125.821 71.8897 127.631 72.1581C129.279 72.4086 129.986 70.7267 130.765 69.5548C133.246 65.8064 134.885 61.6286 136.802 57.594C137.626 55.8406 138.781 54.4092 140.528 53.5235C141.379 53.0852 142.292 52.6737 143.099 53.5772C143.842 54.4003 143.618 55.3217 143.188 56.2073C142.776 57.0662 142.131 57.7461 141.433 58.3812C139.722 59.9468 139.077 64.2409 140.197 66.2716C140.698 67.1752 141.406 67.1573 141.961 66.5847C144.97 63.5073 148.365 60.5372 148.114 55.6974C147.774 48.8985 147.837 42.1621 149.87 35.5779C150.658 33.0103 151.625 30.5323 153.408 28.4658C154.258 27.4728 155.253 26.6318 156.462 26.104C158.898 25.0395 160.815 26.2024 160.985 28.8594C161.173 31.8116 160.313 34.5669 159.364 37.2955C157.725 42.0011 155.736 46.5636 153.416 50.9739C152.234 53.2283 151.625 55.4917 151.876 58.0055C152.288 62.228 152.279 66.5042 153.56 70.6104C153.784 71.344 153.918 72.337 154.814 72.4623C155.7 72.5875 156.148 71.6929 156.578 71.0577C159.355 66.9068 161.558 62.4427 163.439 57.8355C163.94 56.601 163.896 55.1517 164.137 53.8098C164.272 53.0405 164.308 52.0922 165.347 52.0117C166.35 51.9401 166.824 52.7631 167.263 53.5325C167.72 54.3287 167.326 55.2322 167.577 56.1626C168.428 54.8207 169.028 53.4073 170.192 52.3874C172.951 49.963 176.327 50.956 177.169 54.5076C177.734 56.9141 177.483 59.3653 177.062 62.0402C179.964 61.4497 181.021 58.8554 183 57.3614C182.301 59.7589 180.716 61.4855 178.602 62.6753C177.151 63.4894 176.148 64.5361 175.36 65.9854C174.267 67.9982 172.655 69.5638 170.389 70.2436C169.395 70.5389 168.347 70.5836 167.675 69.5369C167.022 68.5171 167.425 67.5777 168.087 66.7547C169.064 65.547 170.398 64.8224 171.76 64.1425C172.404 63.8204 173.175 63.6147 173.345 62.8006C173.99 59.6874 174.572 56.5652 173.703 53.3983C173.345 52.0832 172.539 52.0653 171.607 52.8526C170.488 53.8009 169.708 54.9996 169.082 56.3237C167.693 59.2311 166.905 62.3354 166.699 65.4844C166.215 72.829 166.162 80.1737 167.854 87.4289C168.258 89.1645 169.037 90.73 169.959 92.555C167.756 92.1793 166.977 90.6853 166.332 89.2181C164.182 84.3247 163.511 79.1002 163.34 73.8221C163.206 69.7516 163.314 65.6722 163.314 61.0114C161.388 64.5808 159.847 67.6493 158.101 70.6015C157.223 72.0776 156.507 74.2157 154.312 73.9652C152.172 73.7236 151.518 71.6571 150.783 69.9395C149.467 66.8621 148.965 63.5878 148.464 59.9647C147.46 61.4497 146.627 62.7469 145.723 63.9814C145.042 64.9118 144.352 65.8512 143.528 66.6474C140.779 69.3043 137.563 68.4902 136.256 64.8671C136.068 64.3393 135.942 63.7846 135.665 62.8185C134.303 65.3681 133.175 67.6404 131.903 69.8321C130.837 71.6661 129.923 74.0278 127.272 73.7684C124.666 73.5179 124.146 71.0935 123.349 69.0986C121.889 65.4486 121.397 61.575 120.913 57.7192C120.734 56.3058 120.376 56.4042 119.158 56.762C115.333 57.8892 112.951 59.7679 113.425 64.2677C113.622 66.1285 112.96 68.1145 112.521 70.0021C112.172 71.505 111.294 71.675 110.3 70.5031C109.314 69.3401 108.956 68.025 109.413 66.4774C109.986 64.545 110.434 62.5769 110.873 60.6088C110.98 60.1168 111.312 59.3385 110.443 59.1953C109.547 59.0432 109.458 59.7679 109.359 60.4478C109.126 62.0133 108.956 63.5968 108.571 65.1265C107.21 70.4405 103.466 73.5537 98.5665 75.3697C96.614 76.0943 96.1662 77.1947 96.2736 79.0912C96.5155 83.4032 96.7394 87.7242 96.408 92.0451C95.8885 98.8441 94.2674 105.106 88.5083 109.597C85.5168 111.932 82.2029 112.397 78.6919 111.708C75.1541 111.02 73.1836 108.228 73.1836 104.444C73.1836 100.481 75.4586 97.0817 78.674 96.2497C81.1818 95.5966 83.5911 96.7596 84.3077 98.9604C85.1227 101.465 83.7434 103.496 81.1102 103.63C80.6803 103.657 80.1787 103.729 79.901 103.344C79.5607 102.879 80.0175 102.575 80.2951 102.261C80.725 101.778 81.3072 101.259 80.6265 100.606C80.0443 100.052 79.3726 100.463 78.8173 100.741C77.7336 101.286 77.3216 102.279 77.3932 103.442C77.4738 104.856 78.1814 105.911 79.489 106.475C81.8894 107.504 84.03 106.878 85.9019 105.24C89.6189 101.984 90.9445 97.7795 90.4608 92.9755C90.0219 88.6545 89.0188 84.441 87.4246 80.4063C86.2512 77.4362 84.3793 75.0656 81.3431 73.6879C79.0502 72.677 76.9633 71.2635 74.9391 69.6353ZM111.33 51.4839C111.33 50.2583 111.419 49.0327 111.312 47.816C111.025 44.5239 110.819 41.2049 109.547 38.0917C109.198 37.2418 108.464 35.9983 107.613 37.4028C105.83 40.3371 104.039 43.3877 105.284 47.1003C106.404 50.4461 108.213 53.5235 109.01 56.9946C109.162 57.6656 109.592 57.9518 110.255 57.9429C111.106 57.9339 111.356 57.3793 111.374 56.6546C111.419 54.9281 111.804 53.2104 111.33 51.4839ZM18.8352 41.6432C19.7398 41.688 20.5011 41.2765 21.2714 40.8918C21.8894 40.5787 22.5432 39.8988 23.1612 40.7218C23.7165 41.4554 23.0627 42.0637 22.6238 42.6094C21.4505 44.0676 20.2324 45.5169 19.8025 47.3955C19.5965 48.2812 19.3816 49.3368 20.2772 49.9899C21.1191 50.6071 22.0596 50.3119 22.9463 49.9094C26.9857 48.0665 29.4577 41.1512 27.4514 37.2418C26.7618 35.8999 25.7407 35.1216 24.1285 35.5242C21.8446 36.0878 19.2651 39.0668 18.8352 41.6432ZM152.073 50.8219C154.742 46.3399 156.757 41.6432 158.405 36.7945C159.167 34.5491 159.964 32.2768 159.91 29.8613C159.892 28.922 160.304 27.598 158.97 27.3028C157.904 27.0612 157.438 28.1795 156.91 28.9399C156.748 29.1725 156.614 29.4409 156.498 29.7003C153.416 36.4009 152.369 43.5488 152.073 50.8219ZM125.203 49.7126C128.884 45.2217 131.195 40.1493 131.742 34.3612C131.813 33.6187 132.046 32.5362 131.177 32.2321C130.183 31.8742 129.664 32.9209 129.234 33.6097C126.198 38.5121 125.311 43.996 125.203 49.7126ZM71.9118 74.7167C71.9387 73.8399 71.8133 72.999 71.5804 72.167C71.3207 71.2724 70.9803 70.8878 70.1115 71.6034C68.0515 73.2942 66.0632 75.0655 64.8361 77.481C64.1554 78.8229 63.7882 80.3079 65.2123 81.3725C66.5289 82.3476 67.9709 81.9719 69.189 81.0146C71.2311 79.4133 71.7327 77.1231 71.9118 74.7167ZM38.262 65.0102C38.2889 65.3323 38.271 66.1285 38.459 66.8889C38.683 67.7835 39.3726 68.195 39.9458 67.2825C41.146 65.377 41.8984 63.2926 41.5401 60.9756C41.4416 60.3046 41.0564 59.75 40.313 59.6695C39.5338 59.589 39.1666 60.1525 38.88 60.7519C38.3068 61.9507 38.3247 63.2568 38.262 65.0102Z" fill="black"/>
</svg>
